<svg width="1817" height="920" viewBox="0 0 1817 920" fill="none" xmlns="http://www.w3.org/2000/svg">
<g style="mix-blend-mode:lighten">
<path fill-rule="evenodd" clip-rule="evenodd" d="M730.472 60.3672L733.472 62.0092C733.539 62.0463 733.595 62.1007 733.634 62.1668C733.673 62.233 733.694 62.3083 733.694 62.3851C733.694 62.4619 733.673 62.5373 733.634 62.6034C733.595 62.6695 733.539 62.7239 733.472 62.761L730.472 64.4041C730.401 64.4437 730.342 64.5026 730.303 64.574L728.662 67.5769C728.626 67.6444 728.571 67.7008 728.505 67.74C728.439 67.7793 728.364 67.8 728.287 67.8C728.21 67.8 728.135 67.7793 728.069 67.74C728.002 67.7008 727.948 67.6444 727.911 67.5769L726.27 64.5751C726.231 64.5017 726.172 64.4412 726.099 64.4008L723.1 62.761C723.033 62.7239 722.977 62.6695 722.938 62.6034C722.899 62.5373 722.879 62.4619 722.879 62.3851C722.879 62.3083 722.899 62.233 722.938 62.1668C722.977 62.1007 723.033 62.0463 723.1 62.0092L726.099 60.3662C726.171 60.3268 726.231 60.2674 726.27 60.1951L727.91 57.1944C727.947 57.1269 728.001 57.0706 728.067 57.0313C728.133 56.992 728.209 56.9713 728.286 56.9713C728.363 56.9713 728.438 56.992 728.504 57.0313C728.57 57.0706 728.625 57.1269 728.661 57.1944L730.303 60.1951C730.342 60.2681 730.401 60.3258 730.472 60.3662" fill="#D15D64"/>
</g>
<g style="mix-blend-mode:lighten">
<path fill-rule="evenodd" clip-rule="evenodd" d="M209.198 141.652L210.678 142.464C210.746 142.501 210.802 142.555 210.841 142.622C210.88 142.688 210.901 142.764 210.901 142.841C210.901 142.918 210.88 142.993 210.841 143.06C210.802 143.126 210.746 143.18 210.678 143.218L209.198 144.027C209.126 144.067 209.068 144.126 209.028 144.198L208.219 145.68C208.183 145.748 208.128 145.804 208.062 145.844C207.996 145.883 207.92 145.904 207.843 145.904C207.766 145.904 207.69 145.883 207.624 145.844C207.558 145.804 207.503 145.748 207.466 145.68L206.658 144.198C206.618 144.126 206.559 144.067 206.487 144.027L205.006 143.218C204.939 143.18 204.883 143.126 204.844 143.06C204.804 142.993 204.784 142.918 204.784 142.841C204.784 142.764 204.804 142.688 204.844 142.622C204.883 142.555 204.939 142.501 205.006 142.464L206.487 141.653C206.559 141.614 206.618 141.556 206.658 141.484L207.466 140.002C207.503 139.935 207.558 139.879 207.624 139.839C207.69 139.8 207.766 139.78 207.843 139.78C207.92 139.78 207.995 139.8 208.062 139.839C208.128 139.879 208.182 139.935 208.219 140.002L209.029 141.484C209.069 141.556 209.129 141.615 209.2 141.654" fill="#FCD05C"/>
</g>
<path fill-rule="evenodd" clip-rule="evenodd" d="M394.684 77.6728L393.082 79.2745L394.684 77.6728ZM399.035 73.3146L397.435 74.9184L399.035 73.3146ZM394.761 77.8504C394.948 78.0379 395.171 78.1865 395.415 78.288C395.66 78.3894 395.922 78.4416 396.187 78.4416C396.452 78.4416 396.714 78.3894 396.959 78.288C397.203 78.1865 397.425 78.0379 397.613 77.8504C397.8 77.663 397.948 77.4404 398.05 77.1955C398.151 76.9506 398.203 76.6882 398.203 76.4231C398.203 76.158 398.151 75.8955 398.05 75.6506C397.948 75.4057 397.8 75.1832 397.613 74.9958C397.425 74.8083 397.203 74.6596 396.959 74.5582C396.714 74.4568 396.452 74.4046 396.187 74.4046C395.922 74.4046 395.66 74.4568 395.415 74.5582C395.171 74.6596 394.948 74.8083 394.761 74.9958C394.574 75.1832 394.425 75.4057 394.324 75.6506C394.223 75.8955 394.17 76.158 394.17 76.4231C394.17 76.6882 394.223 76.9506 394.324 77.1955C394.425 77.4404 394.574 77.663 394.761 77.8504V77.8504Z" stroke="#7B63AB" stroke-width="1.097" stroke-linecap="round" stroke-linejoin="round"/>
<g style="mix-blend-mode:lighten">
<path fill-rule="evenodd" clip-rule="evenodd" d="M996.051 110.487L999.05 112.129C999.117 112.166 999.173 112.221 999.212 112.287C999.251 112.353 999.272 112.428 999.272 112.505C999.272 112.582 999.251 112.657 999.212 112.723C999.173 112.789 999.117 112.844 999.05 112.881L996.051 114.523C995.979 114.564 995.92 114.624 995.881 114.697L994.241 117.698C994.204 117.765 994.149 117.822 994.083 117.861C994.017 117.9 993.942 117.921 993.865 117.921C993.788 117.921 993.713 117.9 993.647 117.861C993.581 117.822 993.526 117.765 993.49 117.698L991.848 114.695C991.809 114.623 991.749 114.563 991.677 114.524L988.679 112.884C988.612 112.847 988.556 112.793 988.517 112.727C988.478 112.66 988.457 112.585 988.457 112.508C988.457 112.431 988.478 112.356 988.517 112.29C988.556 112.224 988.612 112.169 988.679 112.132L991.677 110.489C991.749 110.45 991.809 110.391 991.848 110.319L993.488 107.318C993.525 107.25 993.58 107.194 993.646 107.154C993.712 107.115 993.787 107.094 993.864 107.094C993.941 107.094 994.016 107.115 994.082 107.154C994.148 107.194 994.203 107.25 994.24 107.318L995.881 110.319C995.92 110.391 995.979 110.45 996.051 110.489" fill="#D15D64"/>
</g>
<g style="mix-blend-mode:lighten">
<path fill-rule="evenodd" clip-rule="evenodd" d="M1195.23 152.98L1198.23 154.622C1198.3 154.659 1198.36 154.714 1198.4 154.78C1198.43 154.846 1198.45 154.921 1198.45 154.998C1198.45 155.075 1198.43 155.15 1198.4 155.216C1198.36 155.282 1198.3 155.337 1198.23 155.374L1195.23 157.017C1195.16 157.056 1195.1 157.115 1195.06 157.187L1193.43 160.19C1193.39 160.258 1193.33 160.315 1193.27 160.354C1193.2 160.394 1193.13 160.415 1193.05 160.415C1192.97 160.415 1192.9 160.394 1192.83 160.354C1192.76 160.315 1192.71 160.258 1192.67 160.19L1191.03 157.187C1190.99 157.115 1190.93 157.056 1190.86 157.017L1187.86 155.375C1187.8 155.338 1187.74 155.284 1187.7 155.218C1187.66 155.151 1187.64 155.076 1187.64 154.999C1187.64 154.922 1187.66 154.847 1187.7 154.78C1187.74 154.714 1187.8 154.66 1187.86 154.623L1190.86 152.98C1190.93 152.941 1190.99 152.882 1191.03 152.81L1192.67 149.808C1192.71 149.741 1192.76 149.685 1192.83 149.646C1192.9 149.607 1192.97 149.586 1193.05 149.586C1193.12 149.586 1193.2 149.607 1193.27 149.646C1193.33 149.685 1193.39 149.741 1193.42 149.808L1195.06 152.811C1195.1 152.883 1195.16 152.942 1195.24 152.982" fill="#E98333"/>
</g>
<g style="mix-blend-mode:lighten">
<path fill-rule="evenodd" clip-rule="evenodd" d="M1127.84 69.7408L1129.32 70.5525C1129.39 70.5896 1129.44 70.6442 1129.48 70.7105C1129.52 70.7768 1129.54 70.8525 1129.54 70.9295C1129.54 71.0065 1129.52 71.0821 1129.48 71.1484C1129.44 71.2147 1129.39 71.2693 1129.32 71.3065L1127.84 72.116C1127.77 72.1559 1127.71 72.2152 1127.67 72.2871L1126.86 73.7689C1126.82 73.8366 1126.77 73.8932 1126.7 73.9326C1126.64 73.972 1126.56 73.9928 1126.48 73.9928C1126.41 73.9928 1126.33 73.972 1126.26 73.9326C1126.2 73.8932 1126.14 73.8366 1126.11 73.7689L1125.3 72.2871C1125.26 72.2149 1125.2 72.1555 1125.13 72.116L1123.65 71.3065C1123.58 71.2693 1123.52 71.2147 1123.48 71.1484C1123.44 71.0821 1123.42 71.0065 1123.42 70.9295C1123.42 70.8525 1123.44 70.7768 1123.48 70.7105C1123.52 70.6442 1123.58 70.5896 1123.65 70.5525L1125.13 69.7419C1125.2 69.7031 1125.26 69.6444 1125.3 69.573L1126.11 68.0912C1126.14 68.0237 1126.2 67.9674 1126.26 67.9283C1126.33 67.8891 1126.41 67.8684 1126.48 67.8684C1126.56 67.8684 1126.63 67.8891 1126.7 67.9283C1126.77 67.9674 1126.82 68.0237 1126.86 68.0912L1127.67 69.573C1127.71 69.6449 1127.77 69.7037 1127.84 69.7429" fill="#FCD05C"/>
</g>
<g style="mix-blend-mode:lighten">
<path fill-rule="evenodd" clip-rule="evenodd" d="M1262.54 236.648C1262.54 237.488 1262.2 238.293 1261.61 238.887C1261.02 239.481 1260.21 239.814 1259.37 239.814C1258.53 239.814 1257.73 239.479 1257.13 238.885C1256.54 238.291 1256.21 237.485 1256.21 236.644C1256.21 236.228 1256.29 235.817 1256.45 235.432C1256.61 235.048 1256.84 234.699 1257.14 234.405C1257.43 234.111 1257.78 233.878 1258.16 233.719C1258.55 233.56 1258.96 233.478 1259.37 233.478C1259.79 233.478 1260.2 233.561 1260.59 233.72C1260.97 233.879 1261.32 234.113 1261.61 234.407C1261.91 234.701 1262.14 235.051 1262.3 235.435C1262.46 235.82 1262.54 236.232 1262.54 236.648ZM74.146 307.697L77.1457 309.339C77.2134 309.376 77.2699 309.43 77.3093 309.497C77.3486 309.563 77.3694 309.639 77.3694 309.716C77.3694 309.793 77.3486 309.869 77.3093 309.935C77.2699 310.002 77.2134 310.056 77.1457 310.093L74.146 311.735C74.0746 311.775 74.0157 311.833 73.9762 311.905L72.3359 314.907C72.2991 314.974 72.2448 315.031 72.1787 315.07C72.1127 315.109 72.0372 315.13 71.9604 315.13C71.8836 315.13 71.8081 315.109 71.7421 315.07C71.676 315.031 71.6217 314.974 71.5849 314.907L69.9435 311.905C69.9039 311.833 69.8446 311.774 69.7726 311.735L66.774 310.093C66.7063 310.056 66.6498 310.002 66.6104 309.935C66.5711 309.869 66.5503 309.793 66.5503 309.716C66.5503 309.639 66.5711 309.563 66.6104 309.497C66.6498 309.43 66.7063 309.376 66.774 309.339L69.7726 307.697C69.8445 307.658 69.9038 307.6 69.9435 307.528L71.5838 304.526C71.6206 304.459 71.6749 304.403 71.741 304.363C71.807 304.324 71.8825 304.303 71.9593 304.303C72.0362 304.303 72.1116 304.324 72.1777 304.363C72.2437 304.403 72.298 304.459 72.3348 304.526L73.9762 307.529C74.0154 307.602 74.0741 307.66 74.146 307.699" fill="#D15D64"/>
</g>
<g style="mix-blend-mode:lighten">
<path fill-rule="evenodd" clip-rule="evenodd" d="M173.28 453.267L174.76 454.079C174.827 454.116 174.883 454.171 174.923 454.237C174.962 454.303 174.982 454.379 174.982 454.456C174.982 454.533 174.962 454.608 174.923 454.675C174.883 454.741 174.827 454.796 174.76 454.833L173.28 455.642C173.208 455.682 173.149 455.742 173.11 455.813L172.301 457.295C172.264 457.363 172.21 457.42 172.143 457.459C172.077 457.498 172.002 457.519 171.924 457.519C171.847 457.519 171.772 457.498 171.705 457.459C171.639 457.42 171.585 457.363 171.548 457.295L170.739 455.813C170.7 455.741 170.64 455.682 170.568 455.642L169.088 454.833C169.021 454.796 168.964 454.741 168.925 454.675C168.886 454.608 168.865 454.533 168.865 454.456C168.865 454.379 168.886 454.303 168.925 454.237C168.964 454.171 169.021 454.116 169.088 454.079L170.568 453.268C170.64 453.229 170.699 453.171 170.739 453.099L171.548 451.618C171.585 451.55 171.64 451.494 171.706 451.455C171.772 451.415 171.848 451.395 171.924 451.395C172.001 451.395 172.077 451.415 172.143 451.455C172.209 451.494 172.264 451.55 172.301 451.618L173.111 453.099C173.151 453.171 173.211 453.23 173.282 453.269" fill="#FCD05C"/>
</g>
<g style="mix-blend-mode:lighten">
<path fill-rule="evenodd" clip-rule="evenodd" d="M1757.96 534.326L1760.95 535.969C1761.02 536.006 1761.08 536.061 1761.12 536.127C1761.16 536.193 1761.18 536.269 1761.18 536.346C1761.18 536.423 1761.16 536.499 1761.12 536.565C1761.08 536.631 1761.02 536.686 1760.95 536.723L1757.96 538.364C1757.88 538.403 1757.82 538.463 1757.79 538.535L1756.15 541.536C1756.11 541.604 1756.06 541.661 1755.99 541.7C1755.92 541.74 1755.85 541.761 1755.77 541.761C1755.69 541.761 1755.62 541.74 1755.55 541.7C1755.48 541.661 1755.43 541.604 1755.39 541.536L1753.75 538.534C1753.71 538.461 1753.65 538.401 1753.58 538.362L1750.58 536.721C1750.52 536.684 1750.46 536.63 1750.42 536.563C1750.38 536.497 1750.36 536.421 1750.36 536.344C1750.36 536.267 1750.38 536.191 1750.42 536.125C1750.46 536.058 1750.52 536.004 1750.58 535.967L1753.58 534.324C1753.65 534.285 1753.71 534.227 1753.75 534.155L1755.39 531.153C1755.43 531.086 1755.48 531.029 1755.55 530.99C1755.62 530.951 1755.69 530.93 1755.77 530.93C1755.85 530.93 1755.92 530.951 1755.99 530.99C1756.05 531.029 1756.11 531.086 1756.14 531.153L1757.79 534.155C1757.82 534.227 1757.88 534.286 1757.96 534.325L1757.96 534.326ZM1447.64 69.659L1449.06 70.4326C1449.34 70.5895 1449.34 70.9991 1449.06 71.1517L1447.64 71.9285C1447.57 71.9658 1447.52 72.0217 1447.48 72.0898L1446.71 73.5062C1446.67 73.5705 1446.62 73.6241 1446.55 73.6614C1446.49 73.6987 1446.42 73.7184 1446.35 73.7184C1446.27 73.7184 1446.2 73.6987 1446.14 73.6614C1446.07 73.6241 1446.02 73.5705 1445.99 73.5062L1445.21 72.0898C1445.17 72.0216 1445.12 71.9658 1445.05 71.9285L1443.63 71.1528C1443.57 71.1173 1443.52 71.0652 1443.48 71.002C1443.44 70.9387 1443.42 70.8666 1443.42 70.7932C1443.42 70.7198 1443.44 70.6477 1443.48 70.5845C1443.52 70.5212 1443.57 70.4692 1443.63 70.4337L1445.05 69.6601C1445.12 69.6217 1445.17 69.5652 1445.21 69.4966L1445.98 68.0802C1446.02 68.0151 1446.07 67.9607 1446.14 67.9228C1446.2 67.8849 1446.27 67.8649 1446.34 67.8649C1446.42 67.8649 1446.49 67.8849 1446.55 67.9228C1446.62 67.9607 1446.67 68.0151 1446.71 68.0802L1447.48 69.4966C1447.52 69.5654 1447.57 69.622 1447.64 69.6601" fill="#D15D64"/>
</g>
<g style="mix-blend-mode:lighten">
<path fill-rule="evenodd" clip-rule="evenodd" d="M1727.57 376.998L1729.05 377.809C1729.11 377.846 1729.17 377.901 1729.21 377.967C1729.25 378.034 1729.27 378.109 1729.27 378.186C1729.27 378.263 1729.25 378.339 1729.21 378.405C1729.17 378.472 1729.11 378.526 1729.05 378.563L1727.57 379.373C1727.49 379.413 1727.43 379.472 1727.4 379.544L1726.59 381.026C1726.55 381.093 1726.5 381.15 1726.43 381.189C1726.36 381.229 1726.29 381.25 1726.21 381.25C1726.13 381.25 1726.06 381.229 1725.99 381.189C1725.92 381.15 1725.87 381.093 1725.83 381.026L1725.02 379.544C1724.99 379.472 1724.93 379.412 1724.85 379.373L1723.37 378.563C1723.31 378.526 1723.25 378.472 1723.21 378.405C1723.17 378.339 1723.15 378.263 1723.15 378.186C1723.15 378.109 1723.17 378.034 1723.21 377.967C1723.25 377.901 1723.31 377.846 1723.37 377.809L1724.85 376.999C1724.93 376.96 1724.99 376.901 1725.02 376.83L1725.83 375.348C1725.87 375.281 1725.93 375.224 1725.99 375.185C1726.06 375.146 1726.13 375.125 1726.21 375.125C1726.29 375.125 1726.36 375.146 1726.43 375.185C1726.5 375.224 1726.55 375.281 1726.59 375.348L1727.4 376.83C1727.44 376.902 1727.5 376.961 1727.57 377" fill="#FCD05C"/>
</g>
<path fill-rule="evenodd" clip-rule="evenodd" d="M396.347 380.449L400.215 379.482L399.25 383.354L396.347 380.449Z" stroke="#E98333" stroke-width="1.097" stroke-linecap="round" stroke-linejoin="round"/>
<g style="mix-blend-mode:lighten">
<path fill-rule="evenodd" clip-rule="evenodd" d="M517.409 508.07L519.606 509.273L517.409 510.475L516.208 512.673L515.006 510.475L512.81 509.273L515.006 508.07L516.208 505.871L517.409 508.07Z" fill="#00A959"/>
</g>
<g style="mix-blend-mode:lighten">
<path fill-rule="evenodd" clip-rule="evenodd" d="M526.937 3.70996L529.935 5.35193C530.002 5.38901 530.058 5.44345 530.097 5.50956C530.136 5.57568 530.156 5.65105 530.156 5.72783C530.156 5.80461 530.136 5.87998 530.097 5.9461C530.058 6.01221 530.002 6.06665 529.935 6.10373L526.936 7.74679C526.864 7.78592 526.804 7.84489 526.764 7.91676L525.125 10.9196C525.088 10.9877 525.034 11.0445 524.968 11.0842C524.901 11.1238 524.826 11.1447 524.748 11.1447C524.671 11.1447 524.595 11.1238 524.529 11.0842C524.463 11.0445 524.408 10.9877 524.372 10.9196L522.732 7.91676C522.692 7.84522 522.632 7.78633 522.561 7.74679L519.562 6.10482C519.495 6.06798 519.438 6.01363 519.399 5.94749C519.36 5.88134 519.339 5.80584 519.339 5.72892C519.339 5.652 519.36 5.5765 519.399 5.51035C519.438 5.4442 519.495 5.38986 519.562 5.35302L522.561 3.70996C522.632 3.67042 522.692 3.61153 522.732 3.53998L524.373 0.538238C524.41 0.471007 524.464 0.414949 524.53 0.375911C524.596 0.336873 524.672 0.316284 524.748 0.316284C524.825 0.316284 524.9 0.336873 524.966 0.375911C525.032 0.414949 525.087 0.471007 525.124 0.538238L526.764 3.54108C526.804 3.61299 526.862 3.67182 526.935 3.71214" fill="#E98333"/>
</g>
<path fill-rule="evenodd" clip-rule="evenodd" d="M660.684 180.371L659.762 178.627C659.718 178.544 659.65 178.476 659.567 178.431L657.825 177.507C657.749 177.467 657.685 177.407 657.641 177.333C657.596 177.26 657.573 177.175 657.573 177.089C657.573 177.003 657.596 176.918 657.641 176.845C657.685 176.771 657.749 176.711 657.825 176.671L659.567 175.748C659.65 175.703 659.718 175.635 659.762 175.552L660.684 173.808C660.724 173.732 660.785 173.668 660.859 173.623C660.932 173.579 661.017 173.555 661.103 173.555C661.19 173.555 661.274 173.579 661.348 173.623C661.422 173.668 661.482 173.732 661.522 173.808L662.442 175.552C662.487 175.635 662.555 175.703 662.638 175.748L664.38 176.671C664.717 176.848 664.717 177.33 664.38 177.507L662.638 178.43C662.555 178.475 662.487 178.543 662.442 178.626L661.521 180.37C661.481 180.446 661.421 180.51 661.347 180.555C661.273 180.599 661.189 180.623 661.102 180.623C661.016 180.623 660.931 180.599 660.858 180.555C660.784 180.51 660.723 180.446 660.683 180.37L660.684 180.371Z" stroke="#7B63AB" stroke-width="1.097" stroke-linecap="round" stroke-linejoin="round"/>
<g style="mix-blend-mode:lighten">
<path fill-rule="evenodd" clip-rule="evenodd" d="M595.506 135.547L598.506 137.189C598.573 137.226 598.629 137.281 598.668 137.347C598.707 137.413 598.728 137.488 598.728 137.565C598.728 137.642 598.707 137.717 598.668 137.783C598.629 137.849 598.573 137.904 598.506 137.941L595.506 139.583C595.435 139.624 595.376 139.684 595.337 139.757L593.696 142.758C593.66 142.825 593.605 142.882 593.539 142.921C593.473 142.96 593.398 142.981 593.321 142.981C593.244 142.981 593.169 142.96 593.103 142.921C593.036 142.882 592.982 142.825 592.945 142.758L591.304 139.755C591.265 139.683 591.205 139.623 591.133 139.584L588.134 137.944C588.067 137.907 588.011 137.853 587.972 137.787C587.933 137.72 587.913 137.645 587.913 137.568C587.913 137.491 587.933 137.416 587.972 137.35C588.011 137.284 588.067 137.229 588.134 137.192L591.133 135.549C591.205 135.51 591.264 135.451 591.304 135.379L592.944 132.378C592.981 132.31 593.035 132.254 593.101 132.214C593.167 132.175 593.243 132.154 593.32 132.154C593.397 132.154 593.472 132.175 593.538 132.214C593.604 132.254 593.659 132.31 593.695 132.378L595.337 135.379C595.376 135.451 595.435 135.51 595.506 135.549" fill="#D15D64"/>
</g>
<g style="mix-blend-mode:lighten">
<path fill-rule="evenodd" clip-rule="evenodd" d="M142.72 98.5019L145.717 100.144C145.784 100.181 145.84 100.235 145.879 100.302C145.918 100.368 145.939 100.443 145.939 100.52C145.939 100.597 145.918 100.672 145.879 100.738C145.84 100.804 145.784 100.859 145.717 100.896L142.717 102.539C142.646 102.578 142.587 102.637 142.548 102.709L140.907 105.712C140.871 105.779 140.816 105.835 140.75 105.875C140.684 105.914 140.609 105.935 140.532 105.935C140.455 105.935 140.38 105.914 140.314 105.875C140.247 105.835 140.193 105.779 140.156 105.712L138.516 102.709C138.475 102.637 138.415 102.578 138.342 102.539L135.347 100.897C135.279 100.86 135.223 100.806 135.184 100.739C135.144 100.673 135.124 100.598 135.124 100.521C135.124 100.444 135.144 100.368 135.184 100.302C135.223 100.236 135.279 100.182 135.347 100.145L138.344 98.5019C138.416 98.4624 138.475 98.4035 138.515 98.332L140.156 95.3302C140.193 95.263 140.248 95.2069 140.314 95.1679C140.38 95.1289 140.455 95.1083 140.532 95.1083C140.609 95.1083 140.684 95.1289 140.75 95.1679C140.816 95.2069 140.87 95.263 140.907 95.3302L142.548 98.3331C142.587 98.405 142.646 98.4638 142.717 98.5041" fill="#E98333"/>
</g>
<g style="mix-blend-mode:lighten">
<path fill-rule="evenodd" clip-rule="evenodd" d="M275.327 22.0038C275.326 22.8439 274.993 23.6495 274.399 24.2433C273.805 24.8371 273 25.1705 272.161 25.17C271.321 25.1696 270.517 24.8354 269.923 24.241C269.33 23.6466 268.997 22.8407 268.998 22.0005C268.998 21.5845 269.08 21.1726 269.239 20.7883C269.398 20.4041 269.632 20.0549 269.926 19.7609C270.22 19.4669 270.569 19.2337 270.953 19.0747C271.337 18.9157 271.748 18.834 272.164 18.8342C272.58 18.8344 272.991 18.9166 273.375 19.076C273.759 19.2354 274.107 19.4689 274.401 19.7632C274.695 20.0576 274.928 20.4069 275.087 20.7913C275.245 21.1758 275.327 21.5878 275.327 22.0038Z" fill="#D15D64"/>
</g>
<path fill-rule="evenodd" clip-rule="evenodd" d="M4.35768 183.639L3.43577 181.896C3.39119 181.813 3.32303 181.745 3.23985 181.7L1.49836 180.776C1.42223 180.736 1.3585 180.676 1.31405 180.602C1.26959 180.528 1.24609 180.444 1.24609 180.358C1.24609 180.271 1.26959 180.187 1.31405 180.113C1.3585 180.04 1.42223 179.979 1.49836 179.939L3.23985 179.016C3.32296 178.972 3.39109 178.903 3.43577 178.82L4.35768 177.077C4.39784 177.001 4.4581 176.937 4.53195 176.892C4.60581 176.847 4.69044 176.824 4.77672 176.824C4.863 176.824 4.94764 176.847 5.02149 176.892C5.09535 176.937 5.15561 177.001 5.19577 177.077L6.1155 178.82C6.16007 178.903 6.22823 178.972 6.31142 179.016L8.05292 179.939C8.39033 180.117 8.39033 180.598 8.05292 180.776L6.31142 181.699C6.22807 181.743 6.15986 181.812 6.1155 181.895L5.19468 183.638C5.15452 183.715 5.09426 183.779 5.02041 183.823C4.94655 183.868 4.86191 183.892 4.77563 183.892C4.68936 183.892 4.60472 183.868 4.53087 183.823C4.45701 183.779 4.39675 183.715 4.35659 183.638L4.35768 183.639Z" stroke="#7B63AB" stroke-width="1.097" stroke-linecap="round" stroke-linejoin="round"/>
<g style="mix-blend-mode:lighten">
<path fill-rule="evenodd" clip-rule="evenodd" d="M1789.52 244.502L1792.52 246.144C1792.59 246.182 1792.64 246.236 1792.68 246.302C1792.72 246.369 1792.74 246.444 1792.74 246.521C1792.74 246.598 1792.72 246.674 1792.68 246.74C1792.64 246.807 1792.59 246.861 1792.52 246.898L1789.52 248.54C1789.45 248.579 1789.39 248.638 1789.35 248.71L1787.71 251.712C1787.67 251.78 1787.62 251.837 1787.55 251.877C1787.49 251.916 1787.41 251.937 1787.33 251.937C1787.26 251.937 1787.18 251.916 1787.12 251.877C1787.05 251.837 1786.99 251.78 1786.96 251.712L1785.32 248.71C1785.28 248.638 1785.22 248.579 1785.14 248.54L1782.15 246.898C1782.08 246.861 1782.02 246.807 1781.98 246.741C1781.95 246.674 1781.92 246.599 1781.92 246.521C1781.92 246.444 1781.95 246.368 1781.98 246.302C1782.02 246.236 1782.08 246.181 1782.15 246.144L1785.15 244.502C1785.22 244.464 1785.28 244.405 1785.32 244.334L1786.96 241.332C1786.99 241.264 1787.05 241.208 1787.11 241.169C1787.18 241.129 1787.26 241.109 1787.33 241.109C1787.41 241.109 1787.49 241.129 1787.55 241.169C1787.62 241.208 1787.67 241.264 1787.71 241.332L1789.35 244.335C1789.39 244.407 1789.45 244.466 1789.52 244.505" fill="#D15D64"/>
</g>
<g style="mix-blend-mode:lighten">
<path fill-rule="evenodd" clip-rule="evenodd" d="M1730.83 203.759L1732.31 204.569C1732.38 204.606 1732.43 204.661 1732.47 204.727C1732.51 204.793 1732.53 204.869 1732.53 204.946C1732.53 205.023 1732.51 205.098 1732.47 205.165C1732.43 205.231 1732.38 205.286 1732.31 205.323L1730.83 206.133C1730.76 206.173 1730.7 206.232 1730.66 206.304L1729.85 207.786C1729.81 207.854 1729.76 207.91 1729.69 207.949C1729.63 207.988 1729.55 208.009 1729.48 208.009C1729.4 208.009 1729.32 207.988 1729.26 207.949C1729.19 207.91 1729.14 207.854 1729.1 207.786L1728.29 206.304C1728.25 206.233 1728.19 206.174 1728.12 206.134L1726.64 205.325C1726.57 205.288 1726.52 205.233 1726.48 205.167C1726.44 205.101 1726.42 205.025 1726.42 204.948C1726.42 204.871 1726.44 204.795 1726.48 204.729C1726.52 204.663 1726.57 204.608 1726.64 204.571L1728.12 203.761C1728.19 203.722 1728.25 203.663 1728.29 203.59L1729.1 202.109C1729.14 202.041 1729.19 201.985 1729.26 201.946C1729.32 201.906 1729.4 201.886 1729.48 201.886C1729.55 201.886 1729.63 201.906 1729.69 201.946C1729.76 201.985 1729.81 202.041 1729.85 202.109L1730.66 203.59C1730.7 203.662 1730.76 203.722 1730.83 203.761" fill="#7B63AB"/>
</g>
<g style="mix-blend-mode:lighten">
<path fill-rule="evenodd" clip-rule="evenodd" d="M1703.42 13.0018L1704.84 13.7753C1705.12 13.9333 1705.12 14.3419 1704.84 14.4966L1703.42 15.2702C1703.35 15.3081 1703.3 15.3648 1703.26 15.4337L1702.49 16.8501C1702.45 16.9144 1702.4 16.9679 1702.34 17.0052C1702.27 17.0426 1702.2 17.0622 1702.13 17.0622C1702.06 17.0622 1701.98 17.0426 1701.92 17.0052C1701.86 16.9679 1701.8 16.9144 1701.77 16.8501L1701 15.4337C1700.96 15.3647 1700.9 15.308 1700.83 15.2702L1699.42 14.4966C1699.35 14.4613 1699.3 14.4092 1699.26 14.3457C1699.22 14.2822 1699.2 14.2098 1699.2 14.136C1699.2 14.0622 1699.22 13.9897 1699.26 13.9263C1699.3 13.8628 1699.35 13.8107 1699.42 13.7753L1700.83 13.0018C1700.9 12.9634 1700.96 12.9069 1700.99 12.8383L1701.77 11.4241C1701.8 11.359 1701.85 11.3046 1701.92 11.2667C1701.98 11.2288 1702.05 11.2087 1702.13 11.2087C1702.2 11.2087 1702.27 11.2288 1702.34 11.2667C1702.4 11.3046 1702.45 11.359 1702.49 11.4241L1703.26 12.8383C1703.3 12.9071 1703.36 12.9637 1703.42 13.0018Z" fill="#D15D64"/>
</g>
<g style="mix-blend-mode:lighten">
<path fill-rule="evenodd" clip-rule="evenodd" d="M1759.13 87.1737L1760.61 87.9855C1760.68 88.0226 1760.73 88.0772 1760.77 88.1435C1760.81 88.2098 1760.83 88.2854 1760.83 88.3625C1760.83 88.4395 1760.81 88.5151 1760.77 88.5814C1760.73 88.6477 1760.68 88.7023 1760.61 88.7394L1759.13 89.549C1759.06 89.5889 1759 89.6482 1758.96 89.72L1758.15 91.2019C1758.11 91.2696 1758.06 91.3262 1757.99 91.3656C1757.93 91.405 1757.85 91.4258 1757.77 91.4258C1757.7 91.4258 1757.62 91.405 1757.56 91.3656C1757.49 91.3262 1757.44 91.2696 1757.4 91.2019L1756.59 89.72C1756.55 89.6478 1756.49 89.5885 1756.42 89.549L1754.94 88.7394C1754.87 88.7023 1754.81 88.6477 1754.78 88.5814C1754.74 88.5151 1754.72 88.4395 1754.72 88.3625C1754.72 88.2854 1754.74 88.2098 1754.78 88.1435C1754.81 88.0772 1754.87 88.0226 1754.94 87.9855L1756.42 87.1748C1756.49 87.136 1756.55 87.0774 1756.59 87.006L1757.4 85.5242C1757.44 85.4567 1757.49 85.4004 1757.56 85.3612C1757.62 85.3221 1757.7 85.3014 1757.77 85.3014C1757.85 85.3014 1757.93 85.3221 1757.99 85.3612C1758.06 85.4004 1758.11 85.4567 1758.15 85.5242L1758.96 87.006C1759 87.0779 1759.06 87.1367 1759.13 87.1759" fill="#FCD05C"/>
</g>
<mask id="mask0_52_74" style="mask-type:alpha" maskUnits="userSpaceOnUse" x="1669" y="432" width="7" height="8">
<path d="M1675.51 432.943V439.07H1669.39V432.942H1675.51V432.943Z" fill="white"/>
</mask>
<g mask="url(#mask0_52_74)">
<path fill-rule="evenodd" clip-rule="evenodd" d="M1673.81 434.821L1675.29 435.63C1675.35 435.667 1675.41 435.722 1675.45 435.788C1675.49 435.854 1675.51 435.93 1675.51 436.007C1675.51 436.085 1675.49 436.16 1675.45 436.227C1675.41 436.293 1675.35 436.347 1675.29 436.384L1673.81 437.194C1673.74 437.233 1673.68 437.292 1673.64 437.364L1672.83 438.846C1672.79 438.913 1672.74 438.97 1672.67 439.009C1672.6 439.049 1672.53 439.07 1672.45 439.07C1672.37 439.07 1672.3 439.049 1672.23 439.009C1672.17 438.97 1672.11 438.913 1672.07 438.846L1671.26 437.364C1671.23 437.292 1671.17 437.234 1671.1 437.194L1669.62 436.384C1669.55 436.347 1669.49 436.293 1669.45 436.226C1669.41 436.16 1669.39 436.084 1669.39 436.007C1669.39 435.93 1669.41 435.855 1669.45 435.788C1669.49 435.722 1669.55 435.668 1669.62 435.63L1671.1 434.82C1671.17 434.78 1671.23 434.721 1671.27 434.649L1672.08 433.167C1672.11 433.099 1672.17 433.042 1672.23 433.003C1672.3 432.964 1672.38 432.943 1672.45 432.943C1672.53 432.943 1672.61 432.964 1672.67 433.003C1672.74 433.042 1672.79 433.099 1672.83 433.167L1673.64 434.649C1673.68 434.721 1673.74 434.779 1673.81 434.819" fill="#7B63AB"/>
</g>
<g style="mix-blend-mode:lighten">
<path fill-rule="evenodd" clip-rule="evenodd" d="M1456.46 486.388L1459.46 488.03C1459.52 488.067 1459.58 488.121 1459.62 488.187C1459.66 488.253 1459.68 488.329 1459.68 488.406C1459.68 488.482 1459.66 488.558 1459.62 488.624C1459.58 488.69 1459.52 488.744 1459.46 488.781L1456.46 490.423C1456.39 490.462 1456.33 490.521 1456.29 490.593L1454.65 493.595C1454.61 493.663 1454.56 493.72 1454.49 493.76C1454.43 493.799 1454.35 493.82 1454.27 493.82C1454.2 493.82 1454.12 493.799 1454.05 493.76C1453.99 493.72 1453.93 493.663 1453.9 493.595L1452.26 490.593C1452.22 490.521 1452.16 490.462 1452.09 490.423L1449.09 488.781C1449.02 488.745 1448.96 488.69 1448.92 488.624C1448.88 488.558 1448.86 488.482 1448.86 488.406C1448.86 488.329 1448.88 488.253 1448.92 488.187C1448.96 488.121 1449.02 488.066 1449.09 488.03L1452.09 486.388C1452.16 486.348 1452.22 486.289 1452.26 486.217L1453.9 483.215C1453.93 483.147 1453.99 483.091 1454.05 483.052C1454.12 483.012 1454.19 482.992 1454.27 482.992C1454.35 482.992 1454.42 483.012 1454.49 483.052C1454.56 483.091 1454.61 483.147 1454.65 483.215L1456.29 486.218C1456.33 486.291 1456.39 486.351 1456.46 486.39" fill="#FCD05C"/>
</g>
<g style="mix-blend-mode:lighten">
<path fill-rule="evenodd" clip-rule="evenodd" d="M1335.53 328.976L1336.95 329.75C1337.23 329.907 1337.23 330.316 1336.95 330.469L1335.53 331.245C1335.46 331.283 1335.41 331.339 1335.37 331.408L1334.6 332.822C1334.56 332.887 1334.51 332.94 1334.45 332.978C1334.38 333.015 1334.31 333.035 1334.24 333.035C1334.16 333.035 1334.09 333.015 1334.03 332.978C1333.97 332.94 1333.91 332.887 1333.88 332.822L1333.11 331.406C1333.07 331.338 1333.01 331.282 1332.94 331.245L1331.53 330.469C1331.46 330.433 1331.41 330.381 1331.37 330.318C1331.33 330.255 1331.31 330.183 1331.31 330.109C1331.31 330.036 1331.33 329.964 1331.37 329.901C1331.41 329.837 1331.46 329.785 1331.53 329.75L1332.94 328.976C1333.01 328.938 1333.07 328.881 1333.1 328.813L1333.88 327.396C1333.91 327.331 1333.96 327.277 1334.03 327.239C1334.09 327.201 1334.16 327.181 1334.24 327.181C1334.31 327.181 1334.38 327.201 1334.45 327.239C1334.51 327.277 1334.56 327.331 1334.6 327.396L1335.37 328.813C1335.41 328.882 1335.46 328.938 1335.53 328.976Z" fill="#D15D64"/>
</g>
<g style="mix-blend-mode:lighten">
<path fill-rule="evenodd" clip-rule="evenodd" d="M1575.18 403.147L1576.66 403.959C1576.73 403.996 1576.79 404.05 1576.83 404.117C1576.87 404.183 1576.89 404.259 1576.89 404.336C1576.89 404.413 1576.87 404.488 1576.83 404.555C1576.79 404.621 1576.73 404.676 1576.66 404.713L1575.18 405.522C1575.11 405.562 1575.05 405.621 1575.01 405.693L1574.21 407.175C1574.17 407.243 1574.11 407.299 1574.05 407.339C1573.98 407.378 1573.91 407.399 1573.83 407.399C1573.75 407.399 1573.68 407.378 1573.61 407.339C1573.54 407.299 1573.49 407.243 1573.45 407.175L1572.64 405.693C1572.6 405.621 1572.55 405.562 1572.47 405.522L1570.99 404.713C1570.93 404.676 1570.87 404.621 1570.83 404.555C1570.79 404.488 1570.77 404.413 1570.77 404.336C1570.77 404.259 1570.79 404.183 1570.83 404.117C1570.87 404.05 1570.93 403.996 1570.99 403.959L1572.47 403.148C1572.54 403.109 1572.6 403.051 1572.64 402.979L1573.45 401.497C1573.49 401.43 1573.54 401.374 1573.61 401.335C1573.68 401.295 1573.75 401.275 1573.83 401.275C1573.91 401.275 1573.98 401.295 1574.05 401.335C1574.11 401.374 1574.17 401.43 1574.21 401.497L1575.02 402.979C1575.06 403.051 1575.12 403.11 1575.19 403.149" fill="#FCD05C"/>
</g>
<path fill-rule="evenodd" clip-rule="evenodd" d="M1812.4 450.874L1814.32 450.284L1816.24 450.874L1815.65 448.954L1816.24 447.035L1814.32 447.626L1812.4 447.035L1812.99 448.954L1812.4 450.874Z" stroke="#00A959" stroke-width="1.097" stroke-linecap="round" stroke-linejoin="round"/>
<mask id="mask1_52_74" style="mask-type:alpha" maskUnits="userSpaceOnUse" x="1689" y="638" width="11" height="12">
<path d="M1689.05 638.468H1699.86V649.296H1689.05V638.468Z" fill="white"/>
</mask>
<g mask="url(#mask1_52_74)">
<path fill-rule="evenodd" clip-rule="evenodd" d="M1696.64 641.863L1699.64 643.505C1699.71 643.542 1699.77 643.596 1699.8 643.662C1699.84 643.729 1699.86 643.804 1699.86 643.881C1699.86 643.958 1699.84 644.033 1699.8 644.099C1699.77 644.165 1699.71 644.22 1699.64 644.257L1696.64 645.902C1696.57 645.941 1696.51 646.001 1696.47 646.073L1694.83 649.072C1694.8 649.14 1694.74 649.196 1694.68 649.235C1694.61 649.274 1694.54 649.294 1694.46 649.294C1694.38 649.294 1694.31 649.274 1694.24 649.235C1694.17 649.196 1694.12 649.14 1694.08 649.072L1692.44 646.071C1692.4 645.998 1692.34 645.939 1692.27 645.9L1689.27 644.257C1689.2 644.22 1689.15 644.165 1689.11 644.099C1689.07 644.033 1689.05 643.958 1689.05 643.881C1689.05 643.804 1689.07 643.729 1689.11 643.662C1689.15 643.596 1689.2 643.542 1689.27 643.505L1692.27 641.863C1692.34 641.823 1692.4 641.764 1692.44 641.692L1694.08 638.689C1694.12 638.622 1694.17 638.566 1694.24 638.527C1694.3 638.488 1694.38 638.467 1694.46 638.467C1694.53 638.467 1694.61 638.488 1694.67 638.527C1694.74 638.566 1694.79 638.622 1694.83 638.689L1696.47 641.692C1696.51 641.764 1696.57 641.824 1696.65 641.863" fill="#D15D64"/>
</g>
<path fill-rule="evenodd" clip-rule="evenodd" d="M25.7041 518.946L24.1019 520.548L25.7041 518.946ZM30.0557 514.588L28.4557 516.189L30.0557 514.588ZM25.7814 519.124C26.1595 519.502 26.6724 519.715 27.2072 519.715C27.742 519.715 28.2549 519.502 28.6331 519.124C29.0113 518.745 29.2237 518.232 29.2237 517.696C29.2237 517.161 29.0113 516.647 28.6331 516.269C28.2549 515.89 27.742 515.678 27.2072 515.678C26.6724 515.678 26.1595 515.89 25.7814 516.269C25.4032 516.647 25.1908 517.161 25.1908 517.696C25.1908 518.232 25.4032 518.745 25.7814 519.124V519.124Z" stroke="#E98333" stroke-width="1.097" stroke-linecap="round" stroke-linejoin="round"/>
<g style="mix-blend-mode:lighten">
<path fill-rule="evenodd" clip-rule="evenodd" d="M173.28 825.004L174.76 824.194C174.827 824.156 174.883 824.102 174.923 824.036C174.962 823.969 174.982 823.894 174.982 823.817C174.982 823.74 174.962 823.664 174.923 823.598C174.883 823.531 174.827 823.477 174.76 823.44L173.28 822.63C173.208 822.591 173.149 822.532 173.11 822.46L172.301 820.978C172.264 820.911 172.21 820.854 172.143 820.815C172.077 820.775 172.002 820.754 171.924 820.754C171.847 820.754 171.772 820.775 171.705 820.815C171.639 820.854 171.585 820.911 171.548 820.978L170.739 822.46C170.7 822.533 170.641 822.593 170.568 822.632L169.088 823.441C169.021 823.478 168.964 823.532 168.925 823.599C168.886 823.665 168.865 823.741 168.865 823.818C168.865 823.895 168.886 823.97 168.925 824.037C168.964 824.103 169.021 824.158 169.088 824.195L170.568 825.006C170.64 825.047 170.699 825.104 170.739 825.176L171.548 826.658C171.711 826.956 172.138 826.956 172.301 826.658L173.111 825.176C173.151 825.105 173.21 825.046 173.282 825.006" fill="#FCD05C"/>
</g>
<g style="mix-blend-mode:lighten">
<path fill-rule="evenodd" clip-rule="evenodd" d="M517.409 771.97L519.606 770.767L517.409 769.566L516.208 767.367L515.006 769.566L512.81 770.766L515.006 771.97L516.208 774.169L517.409 771.97Z" fill="#00A959"/>
</g>
<g style="mix-blend-mode:lighten">
<path fill-rule="evenodd" clip-rule="evenodd" d="M1456.46 799.859L1459.46 798.217C1459.53 798.18 1459.58 798.126 1459.62 798.059C1459.66 797.993 1459.68 797.917 1459.68 797.84C1459.68 797.763 1459.66 797.687 1459.62 797.621C1459.58 797.555 1459.53 797.5 1459.46 797.463L1456.46 795.822C1456.39 795.783 1456.33 795.724 1456.29 795.652L1454.65 792.651C1454.61 792.583 1454.56 792.526 1454.49 792.486C1454.43 792.446 1454.35 792.426 1454.27 792.426C1454.2 792.426 1454.12 792.446 1454.05 792.486C1453.99 792.526 1453.93 792.583 1453.9 792.651L1452.26 795.652C1452.22 795.725 1452.16 795.785 1452.09 795.823L1449.09 797.465C1449.02 797.502 1448.96 797.557 1448.92 797.623C1448.88 797.689 1448.86 797.764 1448.86 797.841C1448.86 797.918 1448.88 797.994 1448.92 798.06C1448.96 798.126 1449.02 798.18 1449.09 798.217L1452.09 799.86C1452.16 799.899 1452.22 799.959 1452.26 800.031L1453.9 803.032C1454.06 803.33 1454.49 803.33 1454.65 803.032L1456.29 800.03C1456.33 799.957 1456.39 799.897 1456.46 799.858" fill="#FCD05C"/>
</g>
<g style="mix-blend-mode:lighten">
<path fill-rule="evenodd" clip-rule="evenodd" d="M1575.18 912.169L1576.66 911.359C1576.73 911.322 1576.79 911.267 1576.83 911.201C1576.87 911.134 1576.89 911.059 1576.89 910.982C1576.89 910.905 1576.87 910.829 1576.83 910.763C1576.79 910.696 1576.73 910.642 1576.66 910.605L1575.18 909.795C1575.11 909.756 1575.05 909.697 1575.01 909.625L1574.21 908.143C1574.17 908.076 1574.11 908.019 1574.05 907.98C1573.98 907.94 1573.91 907.919 1573.83 907.919C1573.75 907.919 1573.68 907.94 1573.61 907.98C1573.54 908.019 1573.49 908.076 1573.45 908.143L1572.64 909.625C1572.6 909.698 1572.55 909.758 1572.47 909.797L1570.99 910.606C1570.93 910.643 1570.87 910.698 1570.83 910.764C1570.79 910.83 1570.77 910.906 1570.77 910.983C1570.77 911.06 1570.79 911.135 1570.83 911.202C1570.87 911.268 1570.93 911.323 1570.99 911.36L1572.47 912.171C1572.54 912.212 1572.6 912.27 1572.64 912.341L1573.45 913.823C1573.62 914.121 1574.04 914.121 1574.21 913.823L1575.02 912.341C1575.06 912.27 1575.11 912.211 1575.19 912.171" fill="#FCD05C"/>
</g>
<path fill-rule="evenodd" clip-rule="evenodd" d="M1812.4 844.725L1814.32 845.316L1816.24 844.725L1815.65 846.645L1816.24 848.565L1814.32 847.973L1812.4 848.566L1812.99 846.646L1812.4 844.725Z" stroke="#00A959" stroke-width="1.097" stroke-linecap="round" stroke-linejoin="round"/>
<path fill-rule="evenodd" clip-rule="evenodd" d="M25.7041 745.575L24.1019 743.973L25.7041 745.575ZM30.0557 749.933L28.4557 748.332L30.0557 749.933ZM25.7814 745.397C26.1595 745.019 26.6724 744.806 27.2072 744.806C27.742 744.806 28.2549 745.019 28.6331 745.397C29.0113 745.776 29.2237 746.289 29.2237 746.825C29.2237 747.36 29.0113 747.874 28.6331 748.252C28.2549 748.631 27.742 748.843 27.2072 748.843C26.6724 748.843 26.1595 748.631 25.7814 748.252C25.4032 747.874 25.1908 747.36 25.1908 746.825C25.1908 746.289 25.4032 745.776 25.7814 745.397Z" stroke="#E98333" stroke-width="1.097" stroke-linecap="round" stroke-linejoin="round"/>
<g opacity="0.5">
<path opacity="0.5" fill-rule="evenodd" clip-rule="evenodd" d="M355.255 442.445C359.931 446.381 360.534 453.366 356.601 458.048C355.29 459.609 353.572 460.778 351.639 461.424C349.706 462.07 347.632 462.168 345.646 461.709C344.39 463.51 343.676 465.372 344.014 467.076C344.186 467.943 343.603 467.861 343.302 467.468C341.792 465.505 340.043 462.421 340.165 458.601C336.279 454.572 335.988 448.174 339.668 443.794C343.6 439.112 350.578 438.51 355.254 442.445" fill="#DBE7F0"/>
<path opacity="0.5" fill-rule="evenodd" clip-rule="evenodd" d="M352.058 449.626H350.736L350.749 448.983C350.749 448.133 349.984 445.698 348.787 445.698C348.406 445.698 348.021 445.894 347.767 446.199C347.654 446.323 347.571 446.47 347.524 446.631C347.476 446.791 347.466 446.96 347.492 447.125C347.656 448.095 347.675 448.618 347.079 449.272C346.426 449.985 346.11 450.285 345.516 450.285H344.206C343.513 450.28 342.9 450.895 342.9 451.59V454.209C342.9 454.905 343.513 455.519 344.206 455.519H345.332L346.276 456.082C346.379 456.142 346.496 456.174 346.615 456.174H350.754C351.495 456.174 352.612 455.847 352.716 454.943L353.358 451.048C353.371 450.995 353.371 450.956 353.371 450.917C353.349 450.15 352.821 449.627 352.063 449.627H352.056L352.058 449.626ZM352.058 454.864C352.026 455.315 351.226 455.518 350.749 455.518H346.609L345.516 454.864V450.934C346.405 450.934 346.896 450.444 347.562 449.703C348.367 448.813 348.309 448.025 348.139 446.999C348.087 446.672 348.465 446.345 348.792 446.345C349.336 446.345 350.1 448.132 350.1 448.963L350.087 449.639C350.087 450.091 350.305 450.274 350.754 450.274H352.063C352.476 450.274 352.705 450.51 352.716 450.928L352.063 454.858L352.056 454.864H352.058Z" fill="#27363A"/>
<path opacity="0.5" fill-rule="evenodd" clip-rule="evenodd" d="M384.986 486.904C384.986 481.986 383.279 477.468 380.43 473.905C378.125 471.484 375.606 472.996 374.911 484.289C374.077 497.834 366.955 488.789 361.277 495.168C355.614 501.536 342.428 489.958 345.833 496.726C349.337 503.275 356.238 507.731 364.18 507.731C375.67 507.731 384.986 498.406 384.986 486.904Z" fill="#4D595D"/>
<path opacity="0.5" fill-rule="evenodd" clip-rule="evenodd" d="M364.179 466.078C375.67 466.078 384.985 475.403 384.985 486.904C384.985 498.407 375.671 507.731 364.18 507.731C352.69 507.731 343.376 498.407 343.376 486.904C343.376 475.403 352.69 466.078 364.18 466.078H364.179Z" stroke="#DBE7F0" stroke-width="1.097" stroke-linecap="round" stroke-linejoin="round"/>
<path opacity="0.5" fill-rule="evenodd" clip-rule="evenodd" d="M364.179 466.078C375.67 466.078 384.985 475.403 384.985 486.904C384.985 498.407 375.671 507.731 364.18 507.731C352.69 507.731 343.376 498.407 343.376 486.904C343.376 475.403 352.69 466.078 364.18 466.078H364.179Z" stroke="#DBE7F0" stroke-width="1.097" stroke-linecap="round" stroke-linejoin="round"/>
<path opacity="0.5" d="M356.111 506.106C357.608 502.271 360.668 496.881 366.616 493.847C373.724 490.223 378.815 493.226 384.091 492.96M345.016 478.784C349 480.533 353.854 482.213 357.807 482.213C366.055 482.213 367.93 477.147 377.675 476.959C379.432 476.927 381.016 476.905 382.427 476.894L345.016 478.784Z" stroke="#DBE7F0" stroke-width="1.097" stroke-linecap="round" stroke-linejoin="round"/>
<path opacity="0.5" d="M358.805 507.029C362.418 503.191 371.267 495.425 381.767 498.034H381.769M346.666 498.152C349.875 497.712 355.15 496.32 359.495 491.97C366.243 485.215 368.115 485.03 372.24 485.03C375.618 485.03 380.632 488.553 384.91 488.694L346.666 498.152ZM355.778 467.845C360.11 468.516 365.341 469.875 368.679 472.644C371.286 474.806 375.784 474.657 380.264 473.693L355.778 467.845ZM351.465 470.419C353.062 470.765 354.532 471.141 355.488 471.451C358.641 472.47 361.423 472.842 360.62 475.082C359.599 477.926 354.88 476.321 351.728 475.3C350.694 474.967 349.4 474.352 348.136 473.646L351.465 470.419ZM343.512 484.51C347.672 485.105 353.465 486.506 354.059 489.718C354.468 491.941 349.869 493.187 344.574 493.889L343.512 484.51Z" stroke="#DBE7F0" stroke-width="1.097" stroke-linecap="round" stroke-linejoin="round"/>
</g>
<g opacity="0.5">
<path opacity="0.5" fill-rule="evenodd" clip-rule="evenodd" d="M1616.6 289.519C1572.48 231.985 1568.72 332.18 1483.25 315.345C1507.2 345.757 1544.33 365.279 1586.02 365.279C1658.26 365.279 1716.83 306.655 1716.83 234.338C1716.83 191.459 1696.24 153.4 1664.42 129.513L1658.94 131.698C1682.93 161.35 1637.83 317.19 1616.6 289.518" fill="#4D595D"/>
<path opacity="0.5" d="M1563.96 105.256C1572.24 103.841 1580.63 103.23 1589.02 103.433M1455.22 232.307C1455.34 223.756 1456.29 215.139 1458.15 206.575L1455.22 232.307ZM1504.26 336.27C1501.04 333.692 1497.94 330.961 1494.97 328.087L1504.26 336.27ZM1629.38 357.368C1618.62 361.187 1607.41 363.58 1596.02 364.486L1629.38 357.368ZM1709.34 191.75C1711.02 196.653 1712.41 201.661 1713.51 206.745L1709.34 191.75ZM1671.84 135.754C1675.76 139.187 1679.47 142.853 1682.94 146.733L1671.84 135.754Z" stroke="#DBE7F0" stroke-width="1.097" stroke-linecap="round" stroke-linejoin="round"/>
<path opacity="0.5" fill-rule="evenodd" clip-rule="evenodd" d="M1504.61 338.522C1509.53 342.867 1515.45 346.925 1522.71 350.333C1523.01 350.474 1523.26 350.692 1523.44 350.972C1524.24 352.197 1527.15 355.325 1528.07 356.308C1528.26 356.513 1528.49 356.66 1528.75 356.755L1538.37 360.261C1538.65 360.364 1538.9 360.533 1539.09 360.755L1545.33 367.789C1545.75 368.251 1546.37 368.464 1546.97 368.358L1553.56 367.198C1553.8 367.155 1554.04 367.161 1554.27 367.217L1558.93 368.282C1559.17 368.337 1559.42 368.342 1559.66 368.295L1565.06 367.271C1565.29 367.227 1565.52 367.23 1565.75 367.277L1576.11 369.439C1576.48 369.518 1576.87 369.472 1577.22 369.309L1582.68 366.781C1582.92 366.674 1583.18 366.615 1583.43 366.615L1592.08 366.624C1592.42 366.624 1592.74 366.53 1593.03 366.354L1598.47 362.954C1599.62 362.235 1599.08 360.459 1597.72 360.511L1593.51 360.673C1593.22 360.684 1592.93 360.626 1592.68 360.501L1582.38 355.59C1582.01 355.414 1581.59 355.372 1581.19 355.47L1575.35 356.904C1574.94 357.002 1574.51 356.958 1574.14 356.77L1557.46 348.506C1557.3 348.425 1557.12 348.37 1556.94 348.342L1543.58 346.332C1543.29 346.29 1543.02 346.176 1542.78 346L1531.95 337.902C1531.63 337.662 1531.24 337.537 1530.84 337.547L1518.14 337.846C1518 337.849 1517.87 337.837 1517.73 337.81L1506.15 335.429C1504.36 335.06 1503.24 337.314 1504.61 338.523" fill="#27363A"/>
<path opacity="0.5" fill-rule="evenodd" clip-rule="evenodd" d="M1504.61 338.522C1509.53 342.867 1515.45 346.925 1522.71 350.333C1523.01 350.474 1523.26 350.692 1523.44 350.972C1524.24 352.197 1527.15 355.325 1528.07 356.308C1528.26 356.513 1528.49 356.66 1528.75 356.755L1538.37 360.261C1538.65 360.364 1538.9 360.533 1539.09 360.755L1545.33 367.789C1545.75 368.251 1546.37 368.464 1546.97 368.358L1553.56 367.198C1553.8 367.155 1554.04 367.161 1554.27 367.217L1558.93 368.282C1559.17 368.337 1559.42 368.342 1559.66 368.295L1565.06 367.271C1565.29 367.227 1565.52 367.23 1565.75 367.277L1576.11 369.439C1576.48 369.518 1576.87 369.472 1577.22 369.309L1582.68 366.781C1582.92 366.674 1583.18 366.615 1583.43 366.615L1592.08 366.624C1592.42 366.624 1592.74 366.53 1593.03 366.354L1598.47 362.954C1599.62 362.235 1599.08 360.459 1597.72 360.511L1593.51 360.673C1593.22 360.684 1592.93 360.626 1592.68 360.501L1582.38 355.59C1582.01 355.414 1581.59 355.372 1581.19 355.47L1575.35 356.904C1574.94 357.002 1574.51 356.958 1574.14 356.77L1557.46 348.506C1557.3 348.425 1557.12 348.37 1556.94 348.342L1543.58 346.332C1543.29 346.29 1543.02 346.176 1542.78 346L1531.95 337.902C1531.63 337.662 1531.24 337.537 1530.84 337.547L1518.14 337.846C1518 337.849 1517.87 337.837 1517.73 337.81L1506.15 335.429C1504.36 335.06 1503.24 337.314 1504.61 338.523V338.522Z" stroke="#DBE7F0" stroke-width="1.097" stroke-linecap="round" stroke-linejoin="round"/>
<path opacity="0.5" fill-rule="evenodd" clip-rule="evenodd" d="M1685.87 147.034C1695.11 157.494 1707.34 175.55 1710.79 189.745C1710.86 190.036 1710.85 190.339 1710.78 190.628C1710.7 190.916 1710.55 191.179 1710.34 191.394C1706.3 195.641 1687.02 213.472 1684.97 215.364C1684.84 215.484 1684.71 215.566 1684.56 215.641L1673.09 221.247C1672.96 221.314 1672.81 221.367 1672.66 221.393L1666.65 222.597C1666.2 222.687 1665.8 222.949 1665.54 223.327L1658.43 233.492C1657.9 234.242 1656.9 234.475 1656.1 234.031L1629.5 219.234C1629.26 219.102 1629.05 218.917 1628.9 218.694C1628.74 218.471 1628.64 218.215 1628.6 217.946L1625.23 196.114C1625.18 195.754 1625.23 195.385 1625.39 195.058C1625.55 194.73 1625.81 194.459 1626.12 194.281L1643.41 184.628C1643.83 184.386 1644.15 183.979 1644.26 183.501L1651.6 154.045C1651.68 153.716 1651.85 153.417 1652.1 153.184C1652.34 152.95 1652.65 152.791 1652.98 152.726L1684.19 146.483C1684.49 146.419 1684.81 146.436 1685.1 146.534C1685.4 146.631 1685.66 146.804 1685.87 147.037" fill="#27363A"/>
<path opacity="0.5" fill-rule="evenodd" clip-rule="evenodd" d="M1685.87 147.034C1695.11 157.494 1707.34 175.55 1710.79 189.745C1710.86 190.036 1710.85 190.339 1710.78 190.628C1710.7 190.916 1710.55 191.179 1710.34 191.394C1706.3 195.641 1687.02 213.472 1684.97 215.364C1684.84 215.484 1684.71 215.566 1684.56 215.641L1673.09 221.247C1672.96 221.314 1672.81 221.367 1672.66 221.393L1666.65 222.597C1666.2 222.687 1665.8 222.949 1665.54 223.327L1658.43 233.492C1657.9 234.242 1656.9 234.475 1656.1 234.031L1629.5 219.234C1629.26 219.102 1629.05 218.917 1628.9 218.694C1628.74 218.471 1628.64 218.215 1628.6 217.946L1625.23 196.114C1625.18 195.754 1625.23 195.385 1625.39 195.058C1625.55 194.73 1625.81 194.459 1626.12 194.281L1643.41 184.628C1643.83 184.386 1644.15 183.979 1644.26 183.501L1651.6 154.045C1651.68 153.716 1651.85 153.417 1652.1 153.184C1652.34 152.95 1652.65 152.791 1652.98 152.726L1684.19 146.483C1684.49 146.419 1684.81 146.436 1685.1 146.534C1685.4 146.631 1685.66 146.804 1685.87 147.037V147.034Z" stroke="#DBE7F0" stroke-width="1.097" stroke-linecap="round" stroke-linejoin="round"/>
<path opacity="0.5" fill-rule="evenodd" clip-rule="evenodd" d="M1455.21 262.286C1453.19 252.903 1452.25 243.321 1452.41 233.724C1452.43 232.232 1454.21 231.447 1455.35 232.406L1463.96 239.636C1464.33 239.952 1464.82 240.097 1465.3 240.043L1479.34 238.452C1479.74 238.408 1480.15 238.501 1480.49 238.714L1497.77 249.536C1497.95 249.651 1498.15 249.732 1498.36 249.776L1515.97 253.301C1516.38 253.384 1516.8 253.32 1517.17 253.123L1532.37 244.912C1532.72 244.721 1533.13 244.655 1533.52 244.725C1533.92 244.794 1534.28 244.996 1534.54 245.296L1545.6 257.722C1545.87 258.016 1546.02 258.393 1546.05 258.79L1548.09 289.095C1548.12 289.642 1547.91 290.174 1547.5 290.54L1532.91 303.782C1532.66 304.009 1532.48 304.301 1532.39 304.624L1528.17 319.73C1528.08 320.063 1527.89 320.361 1527.63 320.589C1527.37 320.818 1527.05 320.966 1526.71 321.016L1508.31 323.693C1508.14 323.717 1507.97 323.717 1507.8 323.693L1499.99 322.551C1499.64 322.498 1499.29 322.551 1498.97 322.702C1498.65 322.853 1498.39 323.096 1498.21 323.399C1497.61 324.392 1496.69 325.937 1495.94 327.212C1495.8 327.439 1495.62 327.634 1495.4 327.781C1495.18 327.929 1494.93 328.026 1494.67 328.065C1494.41 328.105 1494.14 328.086 1493.89 328.01C1493.63 327.934 1493.4 327.803 1493.2 327.626C1485.08 320.296 1478.21 312.227 1472.54 303.634H1496.09C1503.73 303.634 1492.28 299.641 1484.13 300.162C1483.05 300.23 1481.94 300.3 1480.82 300.366C1480.55 297.704 1477.72 293.233 1471.44 293.161C1471.9 292.511 1472.31 291.834 1472.68 291.132C1484.99 270.636 1468.85 259.986 1455.21 262.289V262.286Z" fill="#27363A"/>
<path opacity="0.5" fill-rule="evenodd" clip-rule="evenodd" d="M1472.54 303.631C1478.2 312.224 1485.08 320.29 1493.2 327.623C1493.4 327.8 1493.63 327.931 1493.89 328.006C1494.14 328.082 1494.41 328.101 1494.67 328.061C1494.93 328.022 1495.18 327.925 1495.4 327.778C1495.62 327.63 1495.8 327.436 1495.94 327.209C1496.69 325.934 1497.61 324.389 1498.2 323.395C1498.38 323.092 1498.65 322.85 1498.97 322.699C1499.28 322.548 1499.64 322.495 1499.99 322.548L1507.8 323.69C1507.97 323.715 1508.14 323.715 1508.31 323.69L1526.71 321.011C1527.05 320.961 1527.37 320.813 1527.63 320.585C1527.89 320.357 1528.08 320.058 1528.17 319.726L1532.38 304.621C1532.47 304.297 1532.65 304.005 1532.9 303.779L1547.5 290.536C1547.91 290.17 1548.12 289.638 1548.08 289.093L1546.05 258.79C1546.02 258.393 1545.87 258.018 1545.6 257.722L1534.54 245.294C1534.28 244.995 1533.92 244.794 1533.52 244.725C1533.12 244.655 1532.72 244.722 1532.37 244.913L1517.17 253.123C1516.8 253.319 1516.38 253.384 1515.97 253.302L1498.36 249.778C1498.15 249.734 1497.95 249.652 1497.76 249.538L1480.49 238.716C1480.14 238.503 1479.74 238.411 1479.34 238.454L1465.3 240.045C1465.06 240.072 1464.82 240.05 1464.59 239.98C1464.36 239.91 1464.14 239.794 1463.96 239.638L1455.35 232.408C1454.21 231.449 1452.43 232.234 1452.41 233.726C1452.25 243.33 1453.19 252.92 1455.21 262.309L1472.54 303.631ZM1561.89 103.673C1518.04 111.245 1469.92 144.891 1456.75 204.654C1456.47 205.924 1457.62 207.064 1458.89 206.789C1460.2 206.503 1461.71 206.146 1462.68 205.909C1462.99 205.832 1463.32 205.842 1463.63 205.937C1463.94 206.033 1464.21 206.21 1464.42 206.449L1474.24 217.356C1474.66 217.83 1475.31 218.039 1475.93 217.907L1501.46 212.463C1501.89 212.368 1502.27 212.117 1502.53 211.758L1518.5 189.5C1518.74 189.17 1518.85 188.769 1518.83 188.363C1518.81 187.958 1518.65 187.572 1518.38 187.269L1510.18 178.111C1510 177.908 1509.86 177.666 1509.79 177.403C1509.72 177.14 1509.7 176.864 1509.75 176.596L1512.4 162.187C1512.51 161.613 1512.88 161.126 1513.42 160.885L1528.9 153.84C1529.17 153.72 1529.45 153.666 1529.74 153.682C1530.03 153.699 1530.31 153.784 1530.56 153.932C1530.8 154.08 1531.01 154.285 1531.16 154.531C1531.31 154.777 1531.4 155.056 1531.42 155.343L1532.23 167.462C1532.26 167.909 1532.46 168.328 1532.78 168.639L1553.95 188.711C1554.4 189.133 1555.03 189.296 1555.63 189.139L1573.64 184.383C1573.82 184.337 1573.99 184.318 1574.17 184.327C1576.51 184.436 1593.14 185.192 1593.38 184.607C1593.62 184.035 1595.23 167.226 1595.52 164.248C1595.55 163.949 1595.65 163.662 1595.82 163.417L1606.18 148.517C1606.4 148.196 1606.51 147.81 1606.49 147.42C1606.48 147.029 1606.33 146.655 1606.08 146.354L1588.53 125.33C1588.34 125.1 1588.09 124.922 1587.81 124.814L1566.2 116.381C1565.9 116.266 1565.64 116.074 1565.45 115.824C1565.25 115.574 1565.12 115.276 1565.08 114.961C1564.8 112.873 1564.19 108.122 1563.96 105.296C1563.95 105.049 1563.88 104.809 1563.76 104.59C1563.64 104.371 1563.48 104.18 1563.28 104.027C1563.09 103.874 1562.86 103.764 1562.62 103.703C1562.38 103.642 1562.13 103.632 1561.89 103.673H1561.89Z" stroke="#DBE7F0" stroke-width="1.097" stroke-linecap="round" stroke-linejoin="round"/>
<path opacity="0.5" fill-rule="evenodd" clip-rule="evenodd" d="M1712.64 207.64L1707.36 219.719C1707.14 220.202 1706.73 220.563 1706.23 220.715L1692.97 224.663C1692.67 224.755 1692.39 224.927 1692.17 225.161L1680.27 238.053C1679.91 238.439 1679.75 238.964 1679.81 239.485L1682.07 257.523C1682.13 258.028 1681.98 258.536 1681.64 258.917L1671.6 270.437C1671.43 270.635 1671.21 270.793 1670.97 270.899C1670.73 271.004 1670.47 271.055 1670.21 271.047L1652.42 270.579C1651.95 270.567 1651.5 270.736 1651.16 271.051C1650.82 271.365 1650.62 271.801 1650.59 272.264L1649.42 293.223C1649.41 293.439 1649.36 293.651 1649.27 293.848L1640.99 312.486C1640.89 312.705 1640.84 312.941 1640.84 313.181C1640.83 313.42 1640.88 313.658 1640.97 313.88L1647.49 330.025C1647.69 330.53 1647.65 331.1 1647.38 331.573L1638.35 347.571C1638.26 347.726 1638.16 347.858 1638.03 347.978C1637.11 348.856 1632.89 352.896 1629.88 356.01C1628.64 357.299 1629.86 359.399 1631.6 358.977C1660.07 352.149 1730.86 303.123 1716.05 208.105C1715.77 206.335 1713.36 206.003 1712.64 207.641" fill="#27363A"/>
<path opacity="0.5" fill-rule="evenodd" clip-rule="evenodd" d="M1712.64 207.64L1707.36 219.719C1707.14 220.202 1706.73 220.563 1706.23 220.715L1692.97 224.663C1692.67 224.755 1692.39 224.927 1692.17 225.161L1680.27 238.053C1679.91 238.439 1679.75 238.964 1679.81 239.485L1682.07 257.523C1682.13 258.028 1681.98 258.536 1681.64 258.917L1671.6 270.437C1671.43 270.635 1671.21 270.793 1670.97 270.898C1670.73 271.004 1670.47 271.055 1670.21 271.047L1652.42 270.579C1651.95 270.567 1651.5 270.736 1651.16 271.051C1650.82 271.365 1650.62 271.801 1650.59 272.264L1649.42 293.223C1649.41 293.439 1649.36 293.651 1649.27 293.847L1640.99 312.486C1640.89 312.705 1640.84 312.941 1640.84 313.181C1640.83 313.42 1640.88 313.658 1640.97 313.88L1647.49 330.025C1647.69 330.53 1647.65 331.1 1647.38 331.572L1638.35 347.571C1638.26 347.726 1638.16 347.858 1638.03 347.978C1637.11 348.856 1632.89 352.896 1629.88 356.01C1628.64 357.299 1629.86 359.399 1631.6 358.977C1660.07 352.149 1730.86 303.123 1716.05 208.105C1715.77 206.335 1713.36 206.003 1712.64 207.641L1712.64 207.64ZM1590.66 101.501L1606.17 100.627C1606.6 100.601 1607.02 100.733 1607.36 100.997L1609.75 102.851C1610.18 103.182 1610.73 103.301 1611.25 103.174L1620.74 100.904C1621.21 100.793 1621.7 100.875 1622.11 101.13L1626.07 103.639C1626.45 103.879 1626.9 103.966 1627.34 103.89L1633.37 102.824C1633.7 102.763 1634.04 102.802 1634.36 102.929L1636.48 103.804C1636.87 103.967 1637.2 104.268 1637.39 104.65L1639.39 108.623C1639.64 109.124 1640.11 109.476 1640.66 109.574L1644.75 110.306C1645.18 110.383 1645.56 110.611 1645.84 110.952L1648.9 114.82C1649.02 114.964 1649.15 115.089 1649.31 115.191L1656.28 119.873C1656.51 120.027 1656.69 120.221 1656.83 120.461C1657.3 121.3 1658.5 123.362 1658.78 123.61C1659.09 123.882 1669.55 132.446 1672.46 134.825C1672.76 135.075 1672.65 135.569 1672.26 135.658C1671.31 135.887 1669.85 136.218 1669.12 136.32C1668.87 136.355 1668.61 136.315 1668.38 136.203L1658.94 131.699C1658.82 131.644 1658.7 131.598 1658.57 131.568L1648.19 129.168C1647.98 129.118 1647.77 129.107 1647.55 129.135L1637.15 130.521C1636.71 130.578 1636.27 130.473 1635.91 130.225L1620.04 119.34C1619.87 119.223 1619.68 119.136 1619.48 119.085L1601.03 114.295C1600.65 114.197 1600.32 113.976 1600.07 113.668L1595.26 107.501C1595.08 107.274 1594.85 107.093 1594.59 106.974L1590.02 104.904C1588.33 104.131 1588.8 101.603 1590.66 101.498V101.501Z" stroke="#DBE7F0" stroke-width="1.097" stroke-linecap="round" stroke-linejoin="round"/>
<path opacity="0.5" fill-rule="evenodd" clip-rule="evenodd" d="M1418.69 126.488C1430.57 122.514 1443.42 128.936 1447.39 140.83C1450.18 149.195 1447.84 158.035 1442.06 163.932C1443.86 168.055 1446.36 171.295 1449.7 172.529C1451.4 173.158 1450.62 174.087 1449.62 174.196C1444.57 174.741 1437.31 174.501 1430.77 170.197C1419.57 172.689 1408.08 166.351 1404.36 155.222C1400.39 143.327 1406.81 130.462 1418.69 126.487" fill="#DBE7F0"/>
<path opacity="0.5" fill-rule="evenodd" clip-rule="evenodd" d="M1433.44 142.246C1432.7 141.343 1431.65 140.884 1430.3 140.814C1428.91 140.814 1427.88 141.415 1427.15 142.247C1426.91 142.515 1426.71 142.746 1426.55 142.942C1426.48 143.022 1426.4 143.086 1426.3 143.13C1426.21 143.174 1426.11 143.196 1426 143.196C1425.9 143.196 1425.8 143.174 1425.7 143.13C1425.61 143.086 1425.53 143.022 1425.46 142.942C1425.3 142.746 1425.1 142.515 1424.86 142.247C1424.11 141.415 1423.18 140.815 1421.71 140.815C1420.35 140.887 1419.29 141.36 1418.56 142.248C1417.82 143.122 1417.45 144.083 1417.42 145.113C1417.42 145.856 1417.55 147.288 1418.38 148.938C1419.17 150.524 1421.54 152.964 1425.55 156.203C1425.81 156.415 1426.19 156.415 1426.46 156.203C1430.45 152.964 1432.85 150.537 1433.64 148.938C1434.46 147.275 1434.58 145.829 1434.58 145.113C1434.56 144.083 1434.18 143.122 1433.44 142.219V142.247L1433.44 142.246Z" fill="#27363A"/>
<path opacity="0.5" fill-rule="evenodd" clip-rule="evenodd" d="M1708.73 183.259H1784.44C1796.58 183.259 1791.37 178.746 1776.11 180.136C1775.35 180.204 1774.6 180.256 1773.85 180.303C1772.14 178.449 1767.9 176.182 1763.76 177.456C1763.06 172.48 1754.81 166.497 1747.04 171.694C1746.47 163.962 1738.7 156.544 1730.51 163.144C1732.95 150.617 1729.66 136.823 1710.55 138.467C1698.79 139.48 1693.48 145.571 1691.83 152.904L1708.73 183.259ZM1484.13 300.158C1483.05 300.227 1481.94 300.297 1480.82 300.363C1480.55 297.7 1477.72 293.23 1471.44 293.158C1471.9 292.508 1472.31 291.831 1472.68 291.129C1490.72 261.095 1447.66 252.202 1440.92 274.232C1439.49 278.895 1438.91 283.455 1438.92 287.483C1436.77 286.111 1433.84 285.228 1429.84 285.228C1418.96 285.228 1415.39 294.776 1416.49 299.342C1414.53 298.117 1412.34 296.929 1407.47 297.381C1398.1 298.249 1388.74 303.632 1402.96 303.632H1496.1C1503.73 303.632 1492.28 299.637 1484.13 300.158H1484.13Z" stroke="#DBE7F0" stroke-width="1.097" stroke-linecap="round" stroke-linejoin="round"/>
</g>
</svg>
